<svg width="375" height="812" viewBox="0 0 375 812" fill="none" xmlns="http://www.w3.org/2000/svg">
<g clip-path="url(#clip0_61385:181)">
<rect width="375" height="812" fill="#202024"/>
<circle cx="278" cy="99" r="300" transform="rotate(-180 278 99)" fill="url(#paint0_radial_61385:181)"/>
<circle cx="98" cy="99" r="300" transform="rotate(-180 98 99)" fill="url(#paint1_radial_61385:181)"/>
<g filter="url(#filter0_d_61385:181)">
<mask id="mask0_61385:181" style="mask-type:alpha" maskUnits="userSpaceOnUse" x="1" y="1" width="375" height="812">
<rect x="1" y="1" width="375" height="812" fill="#202024"/>
</mask>
<g mask="url(#mask0_61385:181)">
<path d="M376 169.101V-309.699L188.478 -417.486L0.955322 -309.699V169.101L188.478 276.894L376 169.101Z" fill="url(#paint2_linear_61385:181)"/>
<g style="mix-blend-mode:luminosity" opacity="0.4">
<path d="M2.83662 62.3931V169.797L96.1275 223.505L189.418 169.797V62.3931L96.1275 8.68578L2.83662 62.3931Z" fill="url(#paint3_linear_61385:181)"/>
<path d="M2.83662 -45.0166V62.3877L96.1275 116.095L189.418 62.3877V-45.0166L96.1275 -98.7239L2.83662 -45.0166Z" fill="url(#paint4_linear_61385:181)"/>
<path d="M282.709 -98.6961V8.70821L189.418 62.4155L96.1274 8.70821V-98.6961L189.418 -152.403L282.709 -98.6961Z" fill="url(#paint5_linear_61385:181)"/>
<path d="M189.418 169.797V62.3927L282.709 8.68539L376 62.3927V169.797L282.709 223.504L189.418 169.797Z" fill="url(#paint6_linear_61385:181)"/>
<path d="M376 -45.0166V62.3877L282.709 116.095L189.418 62.3877V-45.0166L282.709 -98.7239L376 -45.0166Z" fill="url(#paint7_linear_61385:181)"/>
<path d="M282.709 223.527V116.123L189.418 62.4155L96.1274 116.123L96.1274 223.527L189.418 277.234L282.709 223.527Z" fill="url(#paint8_linear_61385:181)"/>
</g>
</g>
</g>
</g>
<defs>
<filter id="filter0_d_61385:181" x="-3" y="1" width="383" height="284.234" filterUnits="userSpaceOnUse" color-interpolation-filters="sRGB">
<feFlood flood-opacity="0" result="BackgroundImageFix"/>
<feColorMatrix in="SourceAlpha" type="matrix" values="0 0 0 0 0 0 0 0 0 0 0 0 0 0 0 0 0 0 127 0" result="hardAlpha"/>
<feOffset dy="4"/>
<feGaussianBlur stdDeviation="2"/>
<feComposite in2="hardAlpha" operator="out"/>
<feColorMatrix type="matrix" values="0 0 0 0 0 0 0 0 0 0 0 0 0 0 0 0 0 0 0.25 0"/>
<feBlend mode="normal" in2="BackgroundImageFix" result="effect1_dropShadow_61385:181"/>
<feBlend mode="normal" in="SourceGraphic" in2="effect1_dropShadow_61385:181" result="shape"/>
</filter>
<radialGradient id="paint0_radial_61385:181" cx="0" cy="0" r="1" gradientUnits="userSpaceOnUse" gradientTransform="translate(278 99) rotate(90) scale(300)">
<stop stop-color="#23FFA3" stop-opacity="0.96"/>
<stop offset="1" stop-color="#121214" stop-opacity="0"/>
</radialGradient>
<radialGradient id="paint1_radial_61385:181" cx="0" cy="0" r="1" gradientUnits="userSpaceOnUse" gradientTransform="translate(98 99) rotate(90) scale(300)">
<stop stop-color="#3DB9FF"/>
<stop offset="1" stop-color="#121214" stop-opacity="0"/>
</radialGradient>
<linearGradient id="paint2_linear_61385:181" x1="-66.9497" y1="59.9385" x2="437.115" y2="233.357" gradientUnits="userSpaceOnUse">
<stop stop-color="#000AFF"/>
<stop offset="1" stop-color="#1EFF34"/>
</linearGradient>
<linearGradient id="paint3_linear_61385:181" x1="96.1275" y1="218.565" x2="3.23833" y2="60.047" gradientUnits="userSpaceOnUse">
<stop stop-color="#57E5C3"/>
<stop offset="1" stop-color="#FF008E" stop-opacity="0"/>
</linearGradient>
<linearGradient id="paint4_linear_61385:181" x1="96.1275" y1="111.155" x2="3.23831" y2="-47.3627" gradientUnits="userSpaceOnUse">
<stop stop-color="#57E5C3"/>
<stop offset="1" stop-color="#FF008E" stop-opacity="0"/>
</linearGradient>
<linearGradient id="paint5_linear_61385:181" x1="96.1275" y1="-104.732" x2="282.421" y2="7.68569" gradientUnits="userSpaceOnUse">
<stop stop-color="#FFE600" stop-opacity="0.63"/>
<stop offset="1" stop-color="#FFCD1E"/>
</linearGradient>
<linearGradient id="paint6_linear_61385:181" x1="376" y1="175.833" x2="189.706" y2="63.4152" gradientUnits="userSpaceOnUse">
<stop stop-color="#FFE600" stop-opacity="0.63"/>
<stop offset="1" stop-color="#FFCD1E"/>
</linearGradient>
<linearGradient id="paint7_linear_61385:181" x1="282.709" y1="111.155" x2="375.598" y2="-47.3627" gradientUnits="userSpaceOnUse">
<stop stop-color="#57E5C3"/>
<stop offset="1" stop-color="#FF008E" stop-opacity="0"/>
</linearGradient>
<linearGradient id="paint8_linear_61385:181" x1="189.418" y1="67.3552" x2="282.307" y2="225.873" gradientUnits="userSpaceOnUse">
<stop stop-color="#57E5C3"/>
<stop offset="1" stop-color="#FF008E" stop-opacity="0"/>
</linearGradient>
<clipPath id="clip0_61385:181">
<rect width="375" height="812" fill="white"/>
</clipPath>
</defs>
</svg>
